<svg width="22" height="20" viewBox="0 0 22 20" fill="none" xmlns="http://www.w3.org/2000/svg">
<path d="M3.31124 4.87305C3.52001 4.87307 3.72152 4.94611 3.87753 5.07829C4.03354 5.21048 4.13322 5.39262 4.15764 5.59018L4.16361 5.6852V10.5581H9.27785V6.49736C9.27788 6.29843 9.35453 6.10644 9.49326 5.95778C9.63199 5.80913 9.82316 5.71416 10.0305 5.69089L10.1302 5.6852H16.9492C17.6015 5.68517 18.2291 5.92262 18.7036 6.34896C19.1782 6.77531 19.4638 7.35833 19.5021 7.97873L19.5063 8.12167V14.6189C19.5061 14.8259 19.4229 15.025 19.2738 15.1755C19.1246 15.3261 18.9208 15.4166 18.7039 15.4288C18.487 15.4409 18.2735 15.3737 18.1069 15.2408C17.9403 15.1079 17.8332 14.9195 17.8076 14.7139L17.8016 14.6189V12.1824H4.16361V14.6189C4.16337 14.8259 4.08018 15.025 3.93104 15.1755C3.7819 15.3261 3.57807 15.4166 3.36119 15.4288C3.14431 15.4409 2.93075 15.3737 2.76415 15.2408C2.59756 15.1079 2.49049 14.9195 2.46483 14.7139L2.45886 14.6189V5.6852C2.45886 5.46981 2.54867 5.26323 2.70852 5.11092C2.86837 4.95861 3.08517 4.87305 3.31124 4.87305Z" fill="#E0E0E0"/>
<path d="M6.72074 6.49707C7.05244 6.49717 7.3769 6.58947 7.65436 6.76265C7.93182 6.93584 8.15023 7.18239 8.28282 7.47208C8.41541 7.76178 8.45643 8.08204 8.40083 8.39362C8.34524 8.70519 8.19546 8.99455 7.96984 9.22622C7.74422 9.45789 7.45258 9.62182 7.13064 9.69791C6.8087 9.774 6.47045 9.75895 6.15736 9.65461C5.84426 9.55026 5.56991 9.36115 5.36794 9.11045C5.16596 8.85975 5.04513 8.55836 5.02025 8.2432L5.01599 8.12138L5.02025 7.99956C5.05251 7.59092 5.24568 7.209 5.56104 6.93035C5.87641 6.65171 6.29065 6.49694 6.72074 6.49707Z" fill="#E0E0E0"/>
</svg>
