<svg width="21" height="20" viewBox="0 0 21 20" fill="none" xmlns="http://www.w3.org/2000/svg">
<path d="M4.26188 8.93348L5.54044 5.27878H14.9166L16.1951 8.93348M14.9166 12.9943C14.5775 12.9943 14.2522 12.8659 14.0125 12.6374C13.7727 12.409 13.638 12.0991 13.638 11.776C13.638 11.4529 13.7727 11.1431 14.0125 10.9146C14.2522 10.6861 14.5775 10.5578 14.9166 10.5578C15.2556 10.5578 15.5809 10.6861 15.8206 10.9146C16.0604 11.1431 16.1951 11.4529 16.1951 11.776C16.1951 12.0991 16.0604 12.409 15.8206 12.6374C15.5809 12.8659 15.2556 12.9943 14.9166 12.9943ZM5.54044 12.9943C5.20134 12.9943 4.87614 12.8659 4.63636 12.6374C4.39658 12.409 4.26188 12.0991 4.26188 11.776C4.26188 11.4529 4.39658 11.1431 4.63636 10.9146C4.87614 10.6861 5.20134 10.5578 5.54044 10.5578C5.87953 10.5578 6.20474 10.6861 6.44452 10.9146C6.68429 11.1431 6.819 11.4529 6.819 11.776C6.819 12.0991 6.68429 12.409 6.44452 12.6374C6.20474 12.8659 5.87953 12.9943 5.54044 12.9943ZM16.1269 4.8727C15.9564 4.40165 15.4791 4.06055 14.9166 4.06055H5.54044C4.97787 4.06055 4.50054 4.40165 4.33007 4.8727L2.55713 9.74563V16.2429C2.55713 16.4583 2.64693 16.6648 2.80678 16.8172C2.96663 16.9695 3.18344 17.055 3.4095 17.055H4.26188C4.48794 17.055 4.70475 16.9695 4.8646 16.8172C5.02445 16.6648 5.11425 16.4583 5.11425 16.2429V15.4307H15.3427V16.2429C15.3427 16.4583 15.4325 16.6648 15.5924 16.8172C15.7522 16.9695 15.969 17.055 16.1951 17.055H17.0475C17.2736 17.055 17.4904 16.9695 17.6502 16.8172C17.8101 16.6648 17.8999 16.4583 17.8999 16.2429V9.74563L16.1269 4.8727Z" fill="#E0E0E0"/>
</svg>
