<svg width="21" height="20" viewBox="0 0 21 20" fill="none" xmlns="http://www.w3.org/2000/svg">
<g clip-path="url(#clip0_240_1048)">
<path d="M8.69464 5.48205C8.69464 4.51276 8.33542 3.58317 7.69602 2.89779C7.05661 2.2124 6.1894 1.82735 5.28514 1.82735C4.38089 1.82735 3.51367 2.2124 2.87426 2.89779C2.23486 3.58317 1.87565 4.51276 1.87565 5.48205C1.87565 6.45133 2.23486 7.38092 2.87426 8.06631C3.51367 8.7517 4.38089 9.13675 5.28514 9.13675C6.1894 9.13675 7.05661 8.7517 7.69602 8.06631C8.33542 7.38092 8.69464 6.45133 8.69464 5.48205ZM10.2715 6.70028C9.75655 9.14055 7.71796 10.9641 5.28514 10.9641C2.46165 10.9641 0.170898 8.50859 0.170898 5.48205C0.170898 2.4555 2.46165 0 5.28514 0C7.71796 0 9.75655 1.82354 10.2715 4.26381H12.8215C13.1341 3.89073 13.5887 3.6547 14.093 3.6547H17.7866C18.7278 3.6547 19.4914 4.4732 19.4914 5.48205C19.4914 6.4909 18.7278 7.3094 17.7866 7.3094H14.093C13.5887 7.3094 13.1341 7.07336 12.8215 6.70028H10.2715ZM5.28514 3.04558C5.88798 3.04558 6.46612 3.30228 6.89239 3.75921C7.31866 4.21613 7.55814 4.83586 7.55814 5.48205C7.55814 6.12824 7.31866 6.74796 6.89239 7.20489C6.46612 7.66181 5.88798 7.91851 5.28514 7.91851C4.68231 7.91851 4.10416 7.66181 3.67789 7.20489C3.25162 6.74796 3.01214 6.12824 3.01214 5.48205C3.01214 4.83586 3.25162 4.21613 3.67789 3.75921C4.10416 3.30228 4.68231 3.04558 5.28514 3.04558ZM14.3771 9.13675C14.8495 9.13675 15.2295 9.54409 15.2295 10.0504V10.355H18.639C19.1114 10.355 19.4914 10.7623 19.4914 11.2687C19.4914 11.775 19.1114 12.1823 18.639 12.1823H10.1153C9.6429 12.1823 9.26289 11.775 9.26289 11.2687C9.26289 10.7623 9.6429 10.355 10.1153 10.355H13.5248V10.0504C13.5248 9.54409 13.9048 9.13675 14.3771 9.13675ZM10.3994 17.6644V13.4006H18.3549V17.6644C18.3549 18.6732 17.5913 19.4917 16.6501 19.4917H12.1041C11.163 19.4917 10.3994 18.6732 10.3994 17.6644ZM1.87565 12.1823H6.42164C7.3628 12.1823 8.12639 13.0008 8.12639 14.0097C8.12639 15.0185 7.3628 15.837 6.42164 15.837H5.85339C5.85339 16.5109 5.34552 17.0553 4.71689 17.0553H2.4439C1.81527 17.0553 1.3074 16.5109 1.3074 15.837V12.7914C1.3074 12.4564 1.56311 12.1823 1.87565 12.1823ZM6.42164 14.6188C6.73418 14.6188 6.98989 14.3447 6.98989 14.0097C6.98989 13.6747 6.73418 13.4006 6.42164 13.4006H5.85339V14.6188H6.42164ZM1.02327 17.6644H7.27401C7.74637 17.6644 8.12639 18.0717 8.12639 18.578C8.12639 19.0844 7.74637 19.4917 7.27401 19.4917H1.02327C0.550915 19.4917 0.170898 19.0844 0.170898 18.578C0.170898 18.0717 0.550915 17.6644 1.02327 17.6644Z" fill="#E0E0E0"/>
</g>
<defs>
<clipPath id="clip0_240_1048">
<rect x="0.170898" width="20.457" height="19.4917" rx="5" fill="white"/>
</clipPath>
</defs>
</svg>
