<svg width="22" height="22" viewBox="0 0 22 22" fill="none" xmlns="http://www.w3.org/2000/svg">
<path d="M9.50992 0.0272533C4.26588 0.0272533 0 4.30602 0 9.5659C0 14.8258 4.26588 19.1045 9.50992 19.1045C11.113 19.1045 12.6889 18.723 14.0203 17.9872C14.127 18.1159 14.2452 18.2345 14.3736 18.3414L17.0907 21.0668C17.3416 21.3499 17.6475 21.5787 17.9897 21.739C18.3319 21.8992 18.7032 21.9876 19.0807 21.9988C19.4583 22.0099 19.8341 21.9436 20.1851 21.8038C20.5361 21.664 20.8549 21.4537 21.122 21.1858C21.3891 20.9179 21.5987 20.5981 21.7381 20.2461C21.8775 19.894 21.9437 19.517 21.9325 19.1384C21.9214 18.7597 21.8333 18.3873 21.6735 18.0441C21.5137 17.7008 21.2856 17.394 21.0033 17.1423L18.2862 14.417C18.1539 14.2842 18.0082 14.1654 17.8515 14.0627C18.5851 12.7273 19.047 11.1738 19.047 9.53864C19.047 4.27876 14.7811 0 9.53709 0L9.50992 0.0272533ZM9.50992 2.75258C13.2867 2.75258 16.3027 5.77769 16.3027 9.5659C16.3027 11.3646 15.6506 13.0271 14.5094 14.2535C14.4822 14.2807 14.4551 14.308 14.4279 14.3352C14.2996 14.4422 14.1813 14.5608 14.0747 14.6895C12.8791 15.7796 11.2489 16.4065 9.48275 16.4065C5.70595 16.4065 2.68995 13.3814 2.68995 9.59315C2.68995 5.80495 5.70595 2.77983 9.48275 2.77983L9.50992 2.75258Z" fill="#F99417"/>
</svg>
