<svg width="170" height="27" viewBox="0 0 170 27" fill="none" xmlns="http://www.w3.org/2000/svg">
<path d="M13.5708 2.85059L16.4895 11.8334H25.9345L18.2933 17.385L21.212 26.3678L13.5708 20.8161L5.92959 26.3678L8.84827 17.385L1.20707 11.8334H10.6521L13.5708 2.85059Z" fill="#F99417"/>
<path d="M49.5708 2.85059L52.4895 11.8334H61.9345L54.2933 17.385L57.212 26.3678L49.5708 20.8161L41.9296 26.3678L44.8483 17.385L37.2071 11.8334H46.6521L49.5708 2.85059Z" fill="#F99417"/>
<path d="M85.5708 2.85059L88.4895 11.8334H97.9345L90.2933 17.385L93.212 26.3678L85.5708 20.8161L77.9296 26.3678L80.8483 17.385L73.2071 11.8334H82.6521L85.5708 2.85059Z" fill="#F99417"/>
<path d="M121.571 2.85059L124.489 11.8334H133.935L126.293 17.385L129.212 26.3678L121.571 20.8161L113.93 26.3678L116.848 17.385L109.207 11.8334H118.652L121.571 2.85059Z" fill="#F99417"/>
<path d="M157.571 2.85059L160.489 11.8334H169.935L162.293 17.385L165.212 26.3678L157.571 20.8161L149.93 26.3678L152.848 17.385L145.207 11.8334H154.652L157.571 2.85059Z" fill="#E0E0E0"/>
</svg>
