<svg width="22" height="20" viewBox="0 0 22 20" fill="none" xmlns="http://www.w3.org/2000/svg">
<path d="M5.38008 6.70008H16.2478C16.3326 6.70008 16.4139 6.66799 16.4739 6.61088C16.5338 6.55376 16.5675 6.47629 16.5675 6.39552V3.04538C16.5675 2.72229 16.4328 2.41242 16.193 2.18396C15.9532 1.9555 15.628 1.82715 15.2889 1.82715H6.339C5.9999 1.82715 5.6747 1.9555 5.43492 2.18396C5.19514 2.41242 5.06044 2.72229 5.06044 3.04538V6.39552C5.06044 6.47629 5.09411 6.55376 5.15406 6.61088C5.214 6.66799 5.2953 6.70008 5.38008 6.70008ZM7.61756 3.6545H8.87454C9.03974 3.65217 9.19974 3.70954 9.32235 3.81506C9.44496 3.92058 9.52108 4.06643 9.5354 4.22326C9.54121 4.30658 9.52897 4.39015 9.49945 4.46877C9.46994 4.54739 9.42377 4.61939 9.36382 4.6803C9.30387 4.74121 9.23141 4.78972 9.15095 4.82282C9.0705 4.85593 8.98376 4.87291 8.89612 4.87273H7.63913C7.47393 4.87505 7.31394 4.81769 7.19133 4.71217C7.06872 4.60664 6.9926 4.4608 6.97828 4.30397C6.97247 4.22065 6.98471 4.13708 7.01422 4.05846C7.04374 3.97983 7.08991 3.90783 7.14986 3.84693C7.20981 3.78602 7.28227 3.73751 7.36272 3.7044C7.44318 3.6713 7.52992 3.65431 7.61756 3.6545ZM18.4853 8.532C18.486 8.45162 18.4699 8.37192 18.438 8.29749C18.4062 8.22306 18.3592 8.15538 18.2998 8.09833C18.2404 8.04128 18.1697 7.99601 18.0918 7.96511C18.0139 7.93422 17.9304 7.91831 17.846 7.91831H3.78188C3.69752 7.91831 3.614 7.93422 3.53612 7.96511C3.45825 7.99601 3.38756 8.04128 3.32813 8.09833C3.26871 8.15538 3.22172 8.22306 3.18988 8.29749C3.15803 8.37192 3.14196 8.45162 3.1426 8.532C3.14461 9.86812 3.53055 11.1782 4.25856 12.3202C4.98657 13.4621 6.02885 14.3924 7.27235 15.0099L6.99506 16.8579C6.95321 17.1184 6.9988 17.3849 7.12531 17.6193C7.23335 17.8163 7.3959 17.9813 7.59535 18.0966C7.7948 18.2119 8.02356 18.273 8.25684 18.2733H13.3439C13.6216 18.2769 13.8934 18.197 14.1206 18.0449C14.3094 17.9147 14.4573 17.7379 14.5482 17.5336C14.6392 17.3292 14.6699 17.105 14.6369 16.8853L14.3556 15.0122C15.5994 14.3945 16.642 13.4639 17.37 12.3215C18.098 11.1791 18.4838 9.86851 18.4853 8.532ZM8.25684 17.0551L8.49098 15.4942C10.0025 15.951 11.6254 15.951 13.1369 15.4942L13.3711 17.0551H8.25684Z" fill="#E0E0E0"/>
</svg>
